<svg width="68" height="70" viewBox="0 0 68 70" fill="none" xmlns="http://www.w3.org/2000/svg">
<g clip-path="url(#clip0_1733_20)">
<path d="M5.66675 35C5.66675 18.8917 18.352 5.83333 34.0001 5.83333C35.3111 5.83333 35.5278 7.85595 34.4058 8.55388C29.0684 11.8739 25.5001 17.9038 25.5001 24.7917C25.5001 35.2622 33.7454 43.75 43.9168 43.75C50.6077 43.75 56.4653 40.0767 59.6905 34.5823C60.3685 33.4273 62.3334 33.6505 62.3334 35C62.3334 38.3183 61.7951 41.5071 60.8034 44.4792H62.3334C63.507 44.4792 64.4584 45.4586 64.4584 46.6667C64.4584 47.8747 63.507 48.8542 62.3334 48.8542H5.66675C4.49315 48.8542 3.54175 47.8747 3.54175 46.6667C3.54175 45.4586 4.49315 44.4792 5.66675 44.4792H7.19669C6.20505 41.5071 5.66675 38.3183 5.66675 35Z" fill="#DA4256"/>
<path d="M14.1667 53.2292C12.9932 53.2292 12.0417 54.2086 12.0417 55.4167C12.0417 56.6247 12.9932 57.6042 14.1667 57.6042H53.8334C55.007 57.6042 55.9584 56.6247 55.9584 55.4167C55.9584 54.2086 55.007 53.2292 53.8334 53.2292H14.1667Z" fill="#DA4256"/>
<path d="M22.6667 61.9792C21.4932 61.9792 20.5417 62.9586 20.5417 64.1667C20.5417 65.3747 21.4932 66.3542 22.6667 66.3542H45.3334C46.507 66.3542 47.4584 65.3747 47.4584 64.1667C47.4584 62.9586 46.507 61.9792 45.3334 61.9792H22.6667Z" fill="#DA4256"/>
<path d="M49.8966 41.3591C49.7706 41.3591 49.5006 41.3411 49.0866 41.3051C48.6726 41.2511 48.1866 41.1881 47.6286 41.1161C47.0886 41.0441 46.5396 40.9721 45.9816 40.9001C45.4236 40.8101 44.9286 40.7291 44.4966 40.6571C44.0826 40.5851 43.7946 40.5221 43.6326 40.4681C43.6326 40.2881 43.6596 40.1171 43.7136 39.9551C43.7676 39.7931 43.8216 39.6761 43.8756 39.6041L44.6586 39.4961C44.9646 39.4421 45.2076 39.3431 45.3876 39.1991C45.5856 39.0371 45.7296 38.7671 45.8196 38.3891C45.9096 38.0111 45.9546 37.4801 45.9546 36.7961V26.1311C45.9546 25.5911 45.9816 25.1771 46.0356 24.8891C46.1076 24.5831 46.1796 24.3671 46.2516 24.2411C46.3416 24.0971 46.3956 24.0251 46.4136 24.0251H43.9296C43.8756 23.9531 43.8126 23.8361 43.7406 23.6741C43.6686 23.5121 43.6236 23.3501 43.6056 23.1881C43.7136 23.0801 43.8756 22.9631 44.0916 22.8371C44.3256 22.7111 44.5506 22.6031 44.7666 22.5131C45.0006 22.4051 45.1716 22.3511 45.2796 22.3511H56.8626C57.2586 22.4951 57.6636 22.7021 58.0776 22.9721C58.5096 23.2421 58.8606 23.5481 59.1306 23.8901C59.0586 24.9521 58.9326 25.9331 58.7526 26.8331C58.5906 27.7151 58.4376 28.3721 58.2936 28.8041C57.9336 28.8041 57.5646 28.7681 57.1866 28.6961C56.8266 28.6241 56.5566 28.5521 56.3766 28.4801L55.6476 24.5651C55.3776 24.4571 54.8736 24.3491 54.1356 24.2411C53.3976 24.1331 52.4706 24.0791 51.3546 24.0791C50.6526 24.0791 50.2026 24.2681 50.0046 24.6461C49.8066 25.0241 49.7076 25.5461 49.7076 26.2121V30.9911C50.4636 30.9731 51.1476 30.9551 51.7596 30.9371C52.3896 30.9011 52.9746 30.8561 53.5146 30.8021C54.0546 30.7481 54.5856 30.6941 55.1076 30.6401L55.4316 31.0181C55.4136 31.4321 55.3686 31.7921 55.2966 32.0981C55.2426 32.4041 55.1886 32.6291 55.1346 32.7731H49.7076V37.4981C49.7076 37.9481 49.6536 38.3351 49.5456 38.6591C49.4376 38.9651 49.3296 39.1721 49.2216 39.2801L52.0296 39.6311C52.0656 39.7031 52.1106 39.8111 52.1646 39.9551C52.2186 40.0991 52.2456 40.2701 52.2456 40.4681C51.9936 40.6841 51.6246 40.8911 51.1386 41.0891C50.6526 41.2691 50.2386 41.3591 49.8966 41.3591Z" fill="#DA4256"/>
<path d="M35.3781 33.5056C35.1981 33.5056 34.9731 33.3886 34.7031 33.1546C34.4511 32.9206 34.2171 32.6326 34.0011 32.2906C33.7851 31.9306 33.6771 31.5886 33.6771 31.2646C34.4871 30.4186 35.3151 29.4466 36.1611 28.3486C37.0251 27.2506 37.8891 26.0806 38.7531 24.8386C39.6351 23.5786 40.5081 22.3096 41.3721 21.0316C41.8941 20.2396 42.3981 19.4746 42.8841 18.7366C43.3701 17.9986 43.8291 17.3056 44.2611 16.6576L37.6461 16.3876L36.8361 20.6266C36.6561 20.7166 36.3771 20.7976 35.9991 20.8696C35.6391 20.9416 35.2791 20.9776 34.9191 20.9776C34.7931 20.5276 34.6581 20.0056 34.5141 19.4116C34.3881 18.8176 34.2801 18.2056 34.1901 17.5756C34.1001 16.9276 34.0551 16.3246 34.0551 15.7666C34.1631 15.6226 34.3431 15.4606 34.5951 15.2806C34.8471 15.0826 35.1171 14.8936 35.4051 14.7136C35.6931 14.5336 35.9631 14.3896 36.2151 14.2816C36.4671 14.1556 36.6471 14.0926 36.7551 14.0926C36.8991 14.0926 37.2321 14.1106 37.7541 14.1466C38.2761 14.1826 38.8971 14.2276 39.6171 14.2816C40.3371 14.3356 41.0661 14.3986 41.8041 14.4706C42.5421 14.5246 43.2081 14.5786 43.8021 14.6326C44.3961 14.6686 44.8191 14.6956 45.0711 14.7136C45.2691 14.6776 45.5301 14.6236 45.8541 14.5516C46.1781 14.4796 46.4931 14.4076 46.7991 14.3356C47.1231 14.2456 47.3481 14.1736 47.4741 14.1196C47.7441 14.2636 48.0321 14.5066 48.3381 14.8486C48.6621 15.1726 48.8691 15.5956 48.9591 16.1176L39.1311 30.4006L45.4761 30.9946L47.0691 26.4316C47.5011 26.4316 47.9061 26.4856 48.2841 26.5936C48.6621 26.7016 48.9321 26.8006 49.0941 26.8906C49.0941 27.7186 49.0671 28.4836 49.0131 29.1856C48.9591 29.8696 48.8961 30.4636 48.8241 30.9676C48.7701 31.4716 48.7071 31.8586 48.6351 32.1286C48.5091 32.2726 48.3381 32.4256 48.1221 32.5876C47.9061 32.7316 47.6631 32.8756 47.3931 33.0196C47.1411 33.1636 46.9071 33.2806 46.6911 33.3706C46.4751 33.4606 46.2951 33.5056 46.1511 33.5056C45.8631 33.5056 45.4041 33.4696 44.7741 33.3976C44.1441 33.3076 43.4421 33.2086 42.6681 33.1006C41.8941 32.9746 41.1201 32.8486 40.3461 32.7226C39.5721 32.5966 38.8971 32.4976 38.3211 32.4256C37.7451 32.3356 37.3581 32.2906 37.1601 32.2906C36.9621 32.4706 36.7371 32.6596 36.4851 32.8576C36.2511 33.0376 36.0261 33.1906 35.8101 33.3166C35.6121 33.4426 35.4681 33.5056 35.3781 33.5056Z" fill="#DA4256"/>
</g>
<defs>
<clipPath id="clip0_1733_20">
<rect width="68" height="70" fill="white"/>
</clipPath>
</defs>
</svg>
