<svg width="228" height="70" viewBox="0 0 228 70" fill="none" xmlns="http://www.w3.org/2000/svg">
<g clip-path="url(#clip0_1704_101)">
<path d="M5.66675 35C5.66675 18.8917 18.352 5.83333 34.0001 5.83333C35.3111 5.83333 35.5278 7.85595 34.4058 8.55388C29.0684 11.8739 25.5001 17.9038 25.5001 24.7917C25.5001 35.2622 33.7454 43.75 43.9168 43.75C50.6077 43.75 56.4653 40.0767 59.6905 34.5823C60.3685 33.4273 62.3334 33.6505 62.3334 35C62.3334 38.3183 61.7951 41.5071 60.8034 44.4792H62.3334C63.507 44.4792 64.4584 45.4586 64.4584 46.6667C64.4584 47.8747 63.507 48.8542 62.3334 48.8542H5.66675C4.49315 48.8542 3.54175 47.8747 3.54175 46.6667C3.54175 45.4586 4.49315 44.4792 5.66675 44.4792H7.19669C6.20505 41.5071 5.66675 38.3183 5.66675 35Z" fill="#DA4256"/>
<path d="M14.1667 53.2292C12.9932 53.2292 12.0417 54.2086 12.0417 55.4167C12.0417 56.6247 12.9932 57.6042 14.1667 57.6042H53.8334C55.007 57.6042 55.9584 56.6247 55.9584 55.4167C55.9584 54.2086 55.007 53.2292 53.8334 53.2292H14.1667Z" fill="#DA4256"/>
<path d="M22.6667 61.9792C21.4932 61.9792 20.5417 62.9586 20.5417 64.1667C20.5417 65.3747 21.4932 66.3542 22.6667 66.3542H45.3334C46.507 66.3542 47.4584 65.3747 47.4584 64.1667C47.4584 62.9586 46.507 61.9792 45.3334 61.9792H22.6667Z" fill="#DA4256"/>
<path d="M49.8966 41.3591C49.7706 41.3591 49.5006 41.3411 49.0866 41.3051C48.6726 41.2511 48.1866 41.1881 47.6286 41.1161C47.0886 41.0441 46.5396 40.9721 45.9816 40.9001C45.4236 40.8101 44.9286 40.7291 44.4966 40.6571C44.0826 40.5851 43.7946 40.5221 43.6326 40.4681C43.6326 40.2881 43.6596 40.1171 43.7136 39.9551C43.7676 39.7931 43.8216 39.6761 43.8756 39.6041L44.6586 39.4961C44.9646 39.4421 45.2076 39.3431 45.3876 39.1991C45.5856 39.0371 45.7296 38.7671 45.8196 38.3891C45.9096 38.0111 45.9546 37.4801 45.9546 36.7961V26.1311C45.9546 25.5911 45.9816 25.1771 46.0356 24.8891C46.1076 24.5831 46.1796 24.3671 46.2516 24.2411C46.3416 24.0971 46.3956 24.0251 46.4136 24.0251H43.9296C43.8756 23.9531 43.8126 23.8361 43.7406 23.6741C43.6686 23.5121 43.6236 23.3501 43.6056 23.1881C43.7136 23.0801 43.8756 22.9631 44.0916 22.8371C44.3256 22.7111 44.5506 22.6031 44.7666 22.5131C45.0006 22.4051 45.1716 22.3511 45.2796 22.3511H56.8626C57.2586 22.4951 57.6636 22.7021 58.0776 22.9721C58.5096 23.2421 58.8606 23.5481 59.1306 23.8901C59.0586 24.9521 58.9326 25.9331 58.7526 26.8331C58.5906 27.7151 58.4376 28.3721 58.2936 28.8041C57.9336 28.8041 57.5646 28.7681 57.1866 28.6961C56.8266 28.6241 56.5566 28.5521 56.3766 28.4801L55.6476 24.5651C55.3776 24.4571 54.8736 24.3491 54.1356 24.2411C53.3976 24.1331 52.4706 24.0791 51.3546 24.0791C50.6526 24.0791 50.2026 24.2681 50.0046 24.6461C49.8066 25.0241 49.7076 25.5461 49.7076 26.2121V30.9911C50.4636 30.9731 51.1476 30.9551 51.7596 30.9371C52.3896 30.9011 52.9746 30.8561 53.5146 30.8021C54.0546 30.7481 54.5856 30.6941 55.1076 30.6401L55.4316 31.0181C55.4136 31.4321 55.3686 31.7921 55.2966 32.0981C55.2426 32.4041 55.1886 32.6291 55.1346 32.7731H49.7076V37.4981C49.7076 37.9481 49.6536 38.3351 49.5456 38.6591C49.4376 38.9651 49.3296 39.1721 49.2216 39.2801L52.0296 39.6311C52.0656 39.7031 52.1106 39.8111 52.1646 39.9551C52.2186 40.0991 52.2456 40.2701 52.2456 40.4681C51.9936 40.6841 51.6246 40.8911 51.1386 41.0891C50.6526 41.2691 50.2386 41.3591 49.8966 41.3591Z" fill="#DA4256"/>
<path d="M35.3781 33.5056C35.1981 33.5056 34.9731 33.3886 34.7031 33.1546C34.4511 32.9206 34.2171 32.6326 34.0011 32.2906C33.7851 31.9306 33.6771 31.5886 33.6771 31.2646C34.4871 30.4186 35.3151 29.4466 36.1611 28.3486C37.0251 27.2506 37.8891 26.0806 38.7531 24.8386C39.6351 23.5786 40.5081 22.3096 41.3721 21.0316C41.8941 20.2396 42.3981 19.4746 42.8841 18.7366C43.3701 17.9986 43.8291 17.3056 44.2611 16.6576L37.6461 16.3876L36.8361 20.6266C36.6561 20.7166 36.3771 20.7976 35.9991 20.8696C35.6391 20.9416 35.2791 20.9776 34.9191 20.9776C34.7931 20.5276 34.6581 20.0056 34.5141 19.4116C34.3881 18.8176 34.2801 18.2056 34.1901 17.5756C34.1001 16.9276 34.0551 16.3246 34.0551 15.7666C34.1631 15.6226 34.3431 15.4606 34.5951 15.2806C34.8471 15.0826 35.1171 14.8936 35.4051 14.7136C35.6931 14.5336 35.9631 14.3896 36.2151 14.2816C36.4671 14.1556 36.6471 14.0926 36.7551 14.0926C36.8991 14.0926 37.2321 14.1106 37.7541 14.1466C38.2761 14.1826 38.8971 14.2276 39.6171 14.2816C40.3371 14.3356 41.0661 14.3986 41.8041 14.4706C42.5421 14.5246 43.2081 14.5786 43.8021 14.6326C44.3961 14.6686 44.8191 14.6956 45.0711 14.7136C45.2691 14.6776 45.5301 14.6236 45.8541 14.5516C46.1781 14.4796 46.4931 14.4076 46.7991 14.3356C47.1231 14.2456 47.3481 14.1736 47.4741 14.1196C47.7441 14.2636 48.0321 14.5066 48.3381 14.8486C48.6621 15.1726 48.8691 15.5956 48.9591 16.1176L39.1311 30.4006L45.4761 30.9946L47.0691 26.4316C47.5011 26.4316 47.9061 26.4856 48.2841 26.5936C48.6621 26.7016 48.9321 26.8006 49.0941 26.8906C49.0941 27.7186 49.0671 28.4836 49.0131 29.1856C48.9591 29.8696 48.8961 30.4636 48.8241 30.9676C48.7701 31.4716 48.7071 31.8586 48.6351 32.1286C48.5091 32.2726 48.3381 32.4256 48.1221 32.5876C47.9061 32.7316 47.6631 32.8756 47.3931 33.0196C47.1411 33.1636 46.9071 33.2806 46.6911 33.3706C46.4751 33.4606 46.2951 33.5056 46.1511 33.5056C45.8631 33.5056 45.4041 33.4696 44.7741 33.3976C44.1441 33.3076 43.4421 33.2086 42.6681 33.1006C41.8941 32.9746 41.1201 32.8486 40.3461 32.7226C39.5721 32.5966 38.8971 32.4976 38.3211 32.4256C37.7451 32.3356 37.3581 32.2906 37.1601 32.2906C36.9621 32.4706 36.7371 32.6596 36.4851 32.8576C36.2511 33.0376 36.0261 33.1906 35.8101 33.3166C35.6121 33.4426 35.4681 33.5056 35.3781 33.5056Z" fill="#DA4256"/>
</g>
<path d="M79.648 44V43.1L89.572 27.02H83.092C82.612 27.86 82.2 28.636 81.856 29.348C81.52 30.052 81.272 30.652 81.112 31.148L80.128 31.088L81.352 25.724H95.128V26.588L85.144 42.692H92.008C92.416 42.1 92.768 41.552 93.064 41.048C93.36 40.544 93.628 40.032 93.868 39.512C94.116 38.992 94.36 38.416 94.6 37.784L95.596 37.832L94.108 44H79.648ZM103.724 44.252C102.412 44.252 101.264 43.988 100.28 43.46C99.3038 42.924 98.5438 42.18 97.9998 41.228C97.4638 40.268 97.1958 39.16 97.1958 37.904C97.1958 36.568 97.4958 35.396 98.0958 34.388C98.6958 33.38 99.5278 32.592 100.592 32.024C101.664 31.456 102.904 31.172 104.312 31.172C106.128 31.172 107.508 31.664 108.452 32.648C109.404 33.624 109.908 35.064 109.964 36.968L109.784 37.124H99.4158V36.044L106.028 35.804C106.092 35.636 106.124 35.336 106.124 34.904C106.124 33.224 105.42 32.384 104.012 32.384C103.092 32.384 102.384 32.784 101.888 33.584C101.4 34.384 101.156 35.52 101.156 36.992C101.156 40.192 102.392 41.792 104.864 41.792C106.576 41.792 107.924 41.208 108.908 40.04L109.568 40.604C109.144 41.756 108.416 42.652 107.384 43.292C106.36 43.932 105.14 44.252 103.724 44.252ZM119.568 44V43.16L121.236 42.692V36.188C121.236 35.212 121.04 34.492 120.648 34.028C120.256 33.556 119.668 33.32 118.884 33.32C117.892 33.32 117.1 33.744 116.508 34.592V33.092C117.076 32.516 117.744 32.052 118.512 31.7C119.288 31.348 120.152 31.172 121.104 31.172C123.648 31.172 124.92 32.564 124.92 35.348V42.692L126.708 43.16V44H119.568ZM111.336 44V43.16L113.124 42.692V33.548L111.312 32.876V32.336L116.16 31.172H116.688V33.2L116.784 33.32V42.692L118.464 43.16V44H111.336ZM128.137 44V43.124L130.165 42.656V27.032L128.137 26.588V25.724H142.669L143.077 30.944H142.153C141.961 30.32 141.729 29.672 141.457 29C141.185 28.328 140.849 27.68 140.449 27.056H134.221V42.656L136.921 43.124V44H128.137ZM138.301 37.652C138.149 36.772 137.857 35.872 137.425 34.952H133.909V33.692H137.425C137.657 33.236 137.841 32.788 137.977 32.348C138.113 31.9 138.221 31.456 138.301 31.016H139.237V37.652H138.301ZM149.872 44.252C148.56 44.252 147.412 43.988 146.428 43.46C145.452 42.924 144.692 42.18 144.148 41.228C143.612 40.268 143.344 39.16 143.344 37.904C143.344 36.568 143.644 35.396 144.244 34.388C144.844 33.38 145.676 32.592 146.74 32.024C147.812 31.456 149.052 31.172 150.46 31.172C152.276 31.172 153.656 31.664 154.6 32.648C155.552 33.624 156.056 35.064 156.112 36.968L155.932 37.124H145.564V36.044L152.176 35.804C152.24 35.636 152.272 35.336 152.272 34.904C152.272 33.224 151.568 32.384 150.16 32.384C149.24 32.384 148.532 32.784 148.036 33.584C147.548 34.384 147.304 35.52 147.304 36.992C147.304 40.192 148.54 41.792 151.012 41.792C152.724 41.792 154.072 41.208 155.056 40.04L155.716 40.604C155.292 41.756 154.564 42.652 153.532 43.292C152.508 43.932 151.288 44.252 149.872 44.252ZM157.46 44V43.16L159.236 42.692V33.548L157.496 32.876V32.336L161.864 31.172H162.836V32.84L162.92 32.96V42.692L164.588 43.16V44H157.46ZM165.404 44V43.16L167.072 42.692V36.452C167.072 35.308 166.904 34.492 166.568 34.004C166.232 33.508 165.672 33.26 164.888 33.26C164.304 33.26 163.808 33.388 163.4 33.644C163 33.892 162.636 34.264 162.308 34.76V33.224C162.868 32.608 163.588 32.112 164.468 31.736C165.348 31.36 166.236 31.172 167.132 31.172C168.372 31.172 169.284 31.532 169.868 32.252C170.46 32.972 170.756 34.104 170.756 35.648V42.692L172.424 43.16V44H165.404ZM173.252 44V43.16L174.908 42.692V36.452C174.908 35.292 174.752 34.476 174.44 34.004C174.128 33.532 173.588 33.296 172.82 33.296C172.252 33.296 171.748 33.416 171.308 33.656C170.876 33.896 170.488 34.272 170.144 34.784V33.224C170.696 32.608 171.416 32.112 172.304 31.736C173.192 31.36 174.088 31.172 174.992 31.172C176.216 31.172 177.12 31.532 177.704 32.252C178.288 32.972 178.58 34.104 178.58 35.648V42.692L180.248 43.16V44H173.252ZM181.33 44V43.16L183.358 42.692V33.524L181.33 32.876V32.312L186.538 31.172H187.042V42.692L188.938 43.16V44H181.33ZM185.158 29.396C184.502 29.396 183.998 29.192 183.646 28.784C183.294 28.376 183.118 27.932 183.118 27.452C183.118 26.932 183.298 26.472 183.658 26.072C184.026 25.672 184.526 25.472 185.158 25.472C185.806 25.472 186.318 25.672 186.694 26.072C187.078 26.472 187.27 26.932 187.27 27.452C187.27 27.932 187.09 28.376 186.73 28.784C186.378 29.192 185.854 29.396 185.158 29.396ZM198.2 44V43.16L199.868 42.692V36.188C199.868 35.212 199.672 34.492 199.28 34.028C198.888 33.556 198.3 33.32 197.516 33.32C196.524 33.32 195.732 33.744 195.14 34.592V33.092C195.708 32.516 196.376 32.052 197.144 31.7C197.92 31.348 198.784 31.172 199.736 31.172C202.28 31.172 203.552 32.564 203.552 35.348V42.692L205.34 43.16V44H198.2ZM189.968 44V43.16L191.756 42.692V33.548L189.944 32.876V32.336L194.792 31.172H195.32V33.2L195.416 33.32V42.692L197.096 43.16V44H189.968ZM209.805 44.252C208.837 44.252 208.073 44 207.513 43.496C206.953 42.992 206.673 42.304 206.673 41.432C206.673 40.64 206.921 39.956 207.417 39.38C207.913 38.804 208.673 38.324 209.697 37.94C210.729 37.548 212.041 37.24 213.633 37.016V35.276C213.633 34.204 213.533 33.484 213.333 33.116C213.141 32.748 212.757 32.564 212.181 32.564C211.589 32.564 211.121 32.708 210.777 32.996C210.433 33.276 210.261 33.664 210.261 34.16C210.261 34.336 210.277 34.516 210.309 34.7C210.341 34.876 210.357 35.048 210.357 35.216C210.357 35.672 210.197 36.052 209.877 36.356C209.565 36.652 209.177 36.8 208.713 36.8C208.249 36.8 207.873 36.652 207.585 36.356C207.297 36.052 207.153 35.66 207.153 35.18C207.153 34.684 207.317 34.188 207.645 33.692C207.973 33.196 208.433 32.752 209.025 32.36C210.273 31.568 211.773 31.172 213.525 31.172C214.381 31.172 215.069 31.276 215.589 31.484C216.117 31.684 216.513 31.976 216.777 32.36C216.961 32.656 217.097 33.04 217.185 33.512C217.273 33.984 217.317 34.66 217.317 35.54V40.436C217.317 41.14 217.385 41.652 217.521 41.972C217.657 42.284 217.885 42.44 218.205 42.44C218.565 42.44 218.921 42.252 219.273 41.876L219.813 42.644C219.301 43.188 218.765 43.592 218.205 43.856C217.645 44.12 217.025 44.252 216.345 44.252C215.569 44.252 214.981 44.096 214.581 43.784C214.181 43.472 213.921 43 213.801 42.368H213.705C213.113 43.008 212.497 43.484 211.857 43.796C211.217 44.1 210.533 44.252 209.805 44.252ZM211.989 41.996C212.317 41.996 212.621 41.94 212.901 41.828C213.181 41.716 213.425 41.548 213.633 41.324V38.132C212.865 38.284 212.261 38.456 211.821 38.648C211.389 38.84 211.085 39.08 210.909 39.368C210.733 39.648 210.645 40.012 210.645 40.46C210.645 40.98 210.753 41.368 210.969 41.624C211.185 41.872 211.525 41.996 211.989 41.996Z" fill="#DA4256"/>
<defs>
<clipPath id="clip0_1704_101">
<rect width="68" height="70" fill="white"/>
</clipPath>
</defs>
</svg>
